<?xml version="1.0" encoding="utf-8"?>
<svg version="1.1" id="Layer_1" xmlns="http://www.w3.org/2000/svg" xmlns:xlink="http://www.w3.org/1999/xlink" x="0px" y="0px"
	 viewBox="0 0 960 560" style="enable-background:new 0 0 960 560;" xml:space="preserve">
<style type="text/css">
	.st0{fill:#607476;}
	.st1{fill:#84C5EB;}
</style>
<g id="XMLID_1_">
	<path id="XMLID_66_" class="st0" d="M70.1,228.3c0-3.7,0.6-6.6,1.9-8.6c1.3-2.1,3.9-3.1,8.1-3.1c0.4,0,1.3,0,2.5,0.1
		c1.3,0.1,2,0.1,2.3,0.1c1,4.6,2.1,9.6,3.2,14.9c1.1,5.4,2.4,10.8,3.9,16.3c1.5,5.5,3.1,10.8,5,16.2c1.8,5.3,4.1,10.1,6.7,14.4
		c2.7-2.8,4.6-6.1,5.8-10c1.2-3.8,2.1-7.7,2.7-11.6c0.6-3.9,1.1-7.7,1.7-11.3c0.5-3.6,1.6-6.7,3.2-9.3c1.6-2.6,4-4.5,7.2-5.6
		c3.2-1.2,7.6-1.2,13.2,0c6.2,0,11.1,1.1,14.8,3.4c3.7,2.3,6.9,5.2,9.6,8.6c2.7,3.5,5.4,7.2,8,11.1c2.6,3.9,5.9,7.4,9.8,10.5
		c0.9-1.9,2-4.3,3.3-7.2s3-5.9,5-9.1c2-3.2,4.1-6.3,6.4-9.5c2.3-3.2,4.7-6,7.2-8.6c2.5-2.6,5.1-4.7,7.7-6.4c2.7-1.7,5.2-2.5,7.7-2.5
		c6,0,11.3,1.9,15.7,5.6c4.4,3.8,8.2,8.5,11.4,14.2c3.2,5.7,5.8,12,7.9,19c2.1,7,3.7,13.8,4.9,20.2c1.2,6.5,2,12.4,2.5,17.8
		c0.5,5.4,0.8,9.3,0.8,11.6c0,1.9-0.4,3.4-1.3,4.4c-0.9,1-2,1.8-3.3,2.3c-1.3,0.5-2.8,0.9-4.3,1c-1.5,0.1-3,0.2-4.3,0.2
		c-0.3,0-0.7,0-1.3-0.1c-0.6-0.1-1.3-0.2-2-0.3c-0.6-0.1-1.4-0.4-2.4-0.7l-14.4-66.1c0-0.4-0.6-1.3-1.8-2.5c-1.2-1.3-2.1-2-2.7-2.3
		c-0.4,0-0.8-0.1-1.1-0.2c-0.3,0-0.5,0-0.7-0.1c-0.1-0.1-0.3-0.1-0.4-0.1c-3.1,0-6,1.3-8.7,3.8c-2.7,2.5-5.3,5.7-7.6,9.5
		c-2.4,3.8-4.6,8.1-6.6,12.8c-2.1,4.7-3.9,9.4-5.5,14c-1.6,4.6-3.1,8.9-4.3,12.8c-1.3,3.9-2.3,6.9-3,9c-0.6,0.3-1.8,0.6-3.5,0.8
		c-1.8,0.2-3,0.3-3.5,0.3c-4.1,0-7.3-1.4-9.5-4.3s-4-6.5-5.4-10.7c-1.4-4.3-2.6-9-3.5-14c-1-5.1-2.1-9.8-3.5-14
		c-1.4-4.3-3.3-7.9-5.8-10.7s-5.9-4.3-10.3-4.3c-1.6,0-3.2,1.6-4.6,4.9c-1.5,3.2-2.8,7.3-4,12.3c-1.2,4.9-2.3,10.3-3.3,15.9
		c-1,5.7-1.9,11-2.5,15.9c-0.7,4.9-1.3,10.8-1.9,17.6c-0.3,0.4-0.9,0.9-1.8,1.4c-0.9,0.5-1.8,1.1-2.8,1.7c-1,0.6-1.9,1-2.9,1.3
		c-1,0.3-1.7,0.4-2.1,0.4c-4.1,0-8.1-1.9-11.9-5.6c-3.8-3.8-7.3-8.6-10.5-14.6c-3.2-6-6-12.6-8.6-19.8c-2.6-7.2-4.8-14.3-6.5-21.2
		c-1.8-6.9-3.1-13.2-4.1-18.8C70.5,235.6,70.1,231.3,70.1,228.3z"/>
	<path id="XMLID_71_" class="st0" d="M269.2,276.3c0-9.1,2.1-17.7,6.4-25.6c4.3-7.9,9.9-14.7,16.9-20.4c7-5.7,14.9-10.1,23.7-13.4
		c8.8-3.2,17.7-4.9,26.7-4.9c5,0,9.5,1.6,13.4,4.9c3.9,3.2,7.2,7.2,9.8,11.8c2.7,4.6,4.7,9.6,6.1,14.7c1.4,5.2,2.1,9.7,2.1,13.5
		c0,8.3-2,16.3-6,24c-4,7.7-9.1,14.6-15.5,20.6c-6.3,6-13.5,10.8-21.5,14.5c-8,3.7-15.9,5.5-23.9,5.5c-7.1,0-13.1-1.2-17.9-3.7
		s-8.8-5.7-11.7-9.7c-3-4.1-5.1-8.8-6.5-14.4C269.9,288.4,269.2,282.5,269.2,276.3z M288,278.6c0,3.8,0.3,7.2,1,10.1
		c0.7,2.9,1.8,5.3,3.5,7.4c1.7,2.1,3.9,3.7,6.7,4.8c2.8,1.1,6.3,1.7,10.4,1.7c5.5,0,10.9-1.5,16.4-4.5c5.5-3,10.4-6.9,14.7-11.5
		c4.3-4.6,7.9-9.8,10.5-15.4c2.7-5.6,4-11.1,4-16.4c0-2.4-0.2-4.9-0.7-7.7c-0.4-2.8-1.2-5.4-2.2-7.7c-1-2.4-2.5-4.3-4.4-6
		c-1.9-1.6-4.4-2.4-7.3-2.4c-2.7,0-5.8,0.9-9.4,2.7c-3.6,1.8-7.4,4.1-11.3,6.9c-3.9,2.8-7.7,6-11.5,9.5c-3.8,3.5-7.2,7.1-10.3,10.6
		c-3.1,3.5-5.6,6.9-7.4,10.2C288.9,273.8,288,276.5,288,278.6z"/>
	<path id="XMLID_74_" class="st0" d="M381.5,206c1-3.5,2.2-5.2,3.7-4.9c1.4,0.3,3.1,2,5.2,5.1c2.1,3.1,4.4,7.2,7,12.4
		c2.6,5.2,5.3,10.7,8.3,16.7c2.9,6,6.2,12.1,9.6,18.3c3.5,6.2,7.1,11.9,10.8,17c3.8,5.2,7.7,9.4,11.9,12.8c4.2,3.4,8.5,5.4,12.9,6
		l17.7-91.6c0.3-2.5,1.4-3.9,3.4-4.3c2-0.4,3.9-0.6,5.9-0.6c6.6,0,10,3.1,10,9.3c0,3.2-0.3,8.4-0.9,15.5c-0.6,7.1-1.5,14.9-2.9,23.3
		c-1.3,8.5-3,17.2-4.9,26.1c-1.9,8.9-4.2,17.1-6.9,24.4c-2.7,7.4-5.7,13.4-9.2,18.1c-3.5,4.7-7.3,7.1-11.4,7.1c-6,0-12-2-17.9-6.1
		c-5.9-4.1-11.5-9.4-16.7-15.9c-5.2-6.6-10-13.9-14.4-22c-4.4-8.1-8.1-16.3-11.3-24.4c-3.2-8.2-5.6-16-7.4-23.6
		C382.4,217.3,381.5,211,381.5,206z"/>
	<path id="XMLID_76_" class="st0" d="M513.6,155.3c2.8,1.2,5.2,3.1,7.1,5.8c1.9,2.7,2.8,5.1,2.5,7.2c-0.2,2.1-1.9,3.6-5,4.4
		c-3.1,0.8-8.3,0-15.5-2.5c0-4,0.8-7.4,2.3-10.4C506.7,156.8,509.5,155.3,513.6,155.3z M510.5,238.3c0-0.9,0-2.3,0.1-4.3
		c0.1-2,0.1-4.1,0.2-6.3c0.1-2.2,0.1-4.3,0.2-6.4c0.1-2.1,0.1-3.5,0.1-4.4c1.6-2.4,3.7-4.3,6.3-5.8c2.6-1.5,5.2-2.7,7.9-3.5
		c0.4,8,1.7,16.4,3.8,25.4c2.1,9,4.3,18,6.6,27.1c2.4,9.1,4.5,18,6.3,26.9c1.8,8.8,2.8,17.1,2.8,24.8c0,6.6-3.4,10-10.2,10
		c-4.1,0-7.6-1.7-10.4-5.1c-2.8-3.4-5.1-7.7-6.7-12.9c-1.7-5.2-3.1-11.1-4.1-17.5c-1-6.4-1.7-12.7-2.1-18.9
		c-0.4-6.2-0.6-11.9-0.7-17C510.6,245.1,510.5,241.1,510.5,238.3z"/>
	<path id="XMLID_81_" class="st1" d="M553.5,259.8c0-8,1-15.9,2.9-23.9c1.9-8,5-15.1,9.2-21.5c4.2-6.3,9.7-11.5,16.4-15.5
		c6.7-4,14.9-6,24.4-6c5.5,0,10.3,1,14.4,3c4.1,2,7.6,4.6,10.4,7.9c2.8,3.2,4.9,7,6.3,11.4c1.4,4.4,2.1,8.9,2.1,13.6
		c0,7.5-1.7,14.8-5.2,21.9c-3.5,7.1-8.1,13.3-13.9,18.7c-5.8,5.4-12.5,9.4-20,12.2c-7.5,2.7-15.2,3.4-23,1.9
		c0.1,4.3,1.6,7.7,4.3,10.3c2.7,2.6,6,4.5,9.8,5.9c3.8,1.3,7.8,2.2,11.9,2.5c4.1,0.4,7.8,0.6,11.1,0.6c3.4,0,6.6-0.3,9.5-0.9
		c2.9-0.6,5.9-1.3,8.8-2c2.9-0.7,5.9-1.4,9-2c3-0.6,6.2-0.9,9.6-0.9c1.3,0,2.7,0.1,4,0.2c1.3,0.1,2.6,0.5,3.8,1
		c1.2,0.5,2.1,1.3,2.9,2.4c0.7,1.1,1.1,2.5,1.1,4.1c0,2.8-1,5.1-3.1,7c-2.1,1.8-4.7,3.4-7.9,4.8c-3.2,1.3-6.7,2.3-10.5,3
		c-3.8,0.7-7.6,1.2-11.2,1.5c-3.6,0.4-6.9,0.6-10,0.7c-3,0.1-5.3,0.1-6.7,0.1c-9.4,0-17.9-1.5-25.4-4.5c-7.5-3-13.9-7.2-19-12.6
		c-5.2-5.4-9.1-11.9-11.8-19.5C554.8,277.5,553.5,269,553.5,259.8z M576.9,245.4c0,5.2,0.7,8.9,2.1,11.3c1.4,2.4,4.8,3.5,10.3,3.5
		c3.8,0,7.6-0.7,11.3-2.1c3.7-1.4,7-3.4,10.1-5.9c3-2.5,5.4-5.5,7.2-8.8c1.8-3.4,2.7-7.1,2.7-11.1c0-2.2-0.2-4.5-0.6-6.9
		c-0.4-2.4-1.1-4.5-2.3-6.5c-1.2-2-2.7-3.6-4.5-4.9c-1.8-1.3-4.2-1.9-7.2-1.9c-4.4,0-8.4,1-12.1,3c-3.6,2-6.7,4.6-9.2,7.7
		c-2.5,3.2-4.4,6.7-5.8,10.6C577.6,237.5,576.9,241.4,576.9,245.4z"/>
	<path id="XMLID_84_" class="st1" d="M676.9,228.3c0-1.3,0.1-2.7,0.2-4.1c0.1-1.4,0.4-2.7,0.9-3.8c0.4-1.1,1.1-2,2.1-2.8
		c1-0.7,2.3-1.1,4.1-1.1c1.5,0,3.1,1.1,5,3.4c1.8,2.3,3.7,5.2,5.6,8.6c1.9,3.5,3.8,7.3,5.6,11.4c1.8,4.1,3.5,7.9,4.9,11.4
		c1.4,3.5,2.5,6.5,3.4,9c0.9,2.5,1.4,3.8,1.5,4c1.9-5.2,4.1-10.8,6.4-16.8c2.4-6,5.3-11.7,8.7-16.9c3.5-5.2,7.6-9.6,12.4-13.2
		c4.8-3.5,10.7-5.3,17.6-5.3c3.5,0,6.9,0.6,10.1,1.7c3.2,1.1,6,2.7,8.4,4.9c2.4,2.1,4.4,4.7,5.9,7.6c1.5,3,2.2,6.3,2.2,10.2
		c0,3.2-1.3,5.5-3.9,6.9c-2.6,1.3-5.5,2-8.7,2h-2.2l-9.5-9.5c-0.3,0-0.5-0.1-0.7-0.2c-0.3,0-0.6,0-0.8-0.1c-0.2-0.1-0.5-0.1-0.8-0.1
		c-5.2,0-9.2,1.4-12.1,4.3s-5.1,6.4-6.5,10.6c-1.5,4.2-2.4,8.6-2.8,13.3c-0.4,4.6-0.6,8.9-0.6,12.7c0,3,0.3,5.9,0.9,9
		c0.6,3,1.3,6,2,8.8c0.7,2.9,1.4,5.8,2,8.8c0.6,3,0.9,6.2,0.9,9.4c0,6.2-3.3,9.3-10,9.3c-3.7,0-7.5-2-11.5-5.9
		c-4-3.9-7.9-8.9-11.8-14.9c-3.9-6-7.6-12.7-11.2-20s-6.6-14.4-9.3-21.3c-2.7-6.9-4.8-13.2-6.3-18.8
		C677.7,235.1,676.9,231,676.9,228.3z"/>
	<path id="XMLID_86_" class="st1" d="M790,239.6c0-14.3,3.3-24.9,10-31.9c6.6-6.9,16.8-10.4,30.5-10.4c5.6,0,11.4,0.5,17.4,1.5
		c6,1,11.5,2.8,16.5,5.4c5,2.6,9.1,6.2,12.3,10.7c3.2,4.6,4.8,10.5,4.8,17.7c0,8-1.7,15.5-5.2,22.5c-3.5,7-7.8,13.6-13.1,19.7
		c-5.2,6.1-11,11.8-17.3,17c-6.3,5.2-12.1,10.2-17.6,14.9c-0.3,0.6-0.6,1.8-0.8,3.7c-0.2,1.8-0.3,3.1-0.3,3.7
		c0,4.9,1.4,9.8,4.3,14.7c2.9,4.9,6,10,9.4,15c3.4,5.1,6.5,10.4,9.3,15.8c2.8,5.5,4.2,11.1,4.2,17c0,3.5-0.7,5.6-2.2,6.3
		c-1.5,0.7-4.6,1-9.3,1c-3-1.2-5.9-3.9-8.7-8.3c-2.9-4.4-5.8-9.7-8.6-16c-2.9-6.3-5.7-13.5-8.4-21.3c-2.7-7.9-5.3-15.9-7.7-24.1
		s-4.7-16.3-6.9-24.3c-2.1-8-4-15.4-5.6-22.2c-1.6-6.8-3.1-12.6-4.3-17.6C791.2,245.2,790.4,241.7,790,239.6z M808.8,241.6
		c0,2.2,0.1,5.4,0.4,9.6c0.3,4.2,0.9,8.4,1.9,12.5c1,4.1,2.4,7.7,4.3,10.7c1.9,3,4.6,4.5,8,4.5c4.6,0,9.2-1.5,13.8-4.6
		c4.6-3.1,8.8-7,12.4-11.7c3.6-4.7,6.6-9.8,8.8-15.2c2.3-5.4,3.4-10.3,3.4-14.7c0-3.7-0.9-6.6-2.7-8.7c-1.8-2.1-4-3.8-6.7-5.1
		c-2.7-1.3-5.6-2.1-8.7-2.4c-3.1-0.4-6-0.6-8.8-0.6c-8.4,0-14.9,2.3-19.4,6.7C811,227.2,808.8,233.5,808.8,241.6z"/>
</g>
<g id="XMLID_42_">

		<text id="XMLID_97_" transform="matrix(1 0 0 1 1065.4294 321.2605)" class="st1" style="font-family:'GloriaHallelujah'; font-size:226.5453px;">movierp</text>
</g>
</svg>
